<?xml version="1.0" encoding="UTF-8"?>
<svg version="1.1" viewBox="0 0 256 256" xml:space="preserve" xmlns="http://www.w3.org/2000/svg">


<g transform="translate(1.4066 1.4066) scale(2.81)" stroke-linecap="round">
	<path fill="white" d="m58.799 58.33-42.333-42.332c-1.059-1.059-2.776-1.059-3.835 0l-11.837 11.836c-1.059 1.059-1.059 2.776 0 3.835l42.333 42.333c1.059 1.059 2.776 1.059 3.835 0l11.837-11.837c1.059-1.058 1.059-2.775 0-3.835z"/>
	<path fill="white" d="m31.201 58.33 42.333-42.333c1.059-1.059 2.776-1.059 3.835 0l11.837 11.837c1.059 1.059 1.059 2.776 0 3.835l-42.333 42.333c-1.059 1.059-2.776 1.059-3.835 0l-11.837-11.836c-1.059-1.059-1.059-2.776 0-3.836z"/>
</g>
</svg>
