<?xml version="1.0" encoding="UTF-8" standalone="no"?>
<svg
   xml:space="preserve"
   version="1.1"
   id="svg110"
   sodipodi:docname="Soccer-Field-min.svg"
   width="1600"
   height="2560"
   xmlns:inkscape="http://www.inkscape.org/namespaces/inkscape"
   xmlns:sodipodi="http://sodipodi.sourceforge.net/DTD/sodipodi-0.dtd"
   xmlns="http://www.w3.org/2000/svg"
   xmlns:svg="http://www.w3.org/2000/svg"><defs
   id="defs114" /><sodipodi:namedview
   id="namedview112"
   pagecolor="#ffffff"
   bordercolor="#000000"
   borderopacity="0.25"
   inkscape:showpageshadow="2"
   inkscape:pageopacity="0.0"
   inkscape:pagecheckerboard="0"
   inkscape:deskcolor="#d1d1d1"
   showgrid="false" />
    <path
   fill="#278406"
   d="M 1601,1 V 2561 H 1 V 1 Z"
   id="path2"
   inkscape:export-filename="path2.svg"
   inkscape:export-xdpi="96"
   inkscape:export-ydpi="96" />
    <path
   fill="#4d8200"
   d="M 1576.65,21.833 V 2540.167 H 25.35 V 21.833 Z"
   id="path4" />
    <path
   fill="#1a6f05"
   d="M 1576.65,21.833 V 90.82 H 25.35 V 21.833 Z"
   id="path6" />
    <path
   fill="#558907"
   d="m 1576.65,91.34 v 68.987 H 25.35 V 91.34 Z"
   id="path8" />
    <path
   fill="#1a6f05"
   d="m 1576.65,160.846 v 68.987 H 25.35 v -68.987 z"
   id="path10" />
    <path
   fill="#558907"
   d="M 1576.65,230.353 V 299.34 H 25.35 v -68.987 z"
   id="path12" />
    <path
   fill="#1a6f05"
   d="m 1576.65,299.859 v 68.987 H 25.35 v -68.987 z"
   id="path14" />
    <path
   fill="#558907"
   d="m 1576.65,369.366 v 68.987 H 25.35 v -68.987 z"
   id="path16" />
    <path
   fill="#1a6f05"
   d="m 1576.65,438.872 v 68.987 H 25.35 v -68.987 z"
   id="path18" />
    <path
   fill="#558907"
   d="m 1576.65,508.379 v 68.987 H 25.35 v -68.987 z"
   id="path20" />
    <path
   fill="#1a6f05"
   d="m 1576.65,577.885 v 68.987 H 25.35 v -68.987 z"
   id="path22" />
    <path
   fill="#558907"
   d="m 1576.65,647.392 v 68.987 H 25.35 v -68.987 z"
   id="path24" />
    <path
   fill="#1a6f05"
   d="m 1576.65,716.898 v 68.987 H 25.35 v -68.987 z"
   id="path26" />
    <path
   fill="#558907"
   d="m 1576.65,786.405 v 68.987 H 25.35 v -68.987 z"
   id="path28" />
    <path
   fill="#1a6f05"
   d="m 1576.65,855.911 v 68.987 H 25.35 v -68.987 z"
   id="path30" />
    <path
   fill="#558907"
   d="m 1576.65,925.418 v 68.987 H 25.35 v -68.987 z"
   id="path32" />
    <path
   fill="#1a6f05"
   d="m 1576.65,994.924 v 68.987 H 25.35 v -68.987 z"
   id="path34" />
    <path
   fill="#558907"
   d="m 1576.65,1064.431 v 68.987 H 25.35 v -68.987 z"
   id="path36" />
    <path
   fill="#1a6f05"
   d="m 1576.65,1133.937 v 68.987 H 25.35 v -68.987 z"
   id="path38" />
    <path
   fill="#558907"
   d="m 1576.65,1203.444 v 68.987 H 25.35 v -68.987 z"
   id="path40" />
    <path
   fill="#1a6f05"
   d="m 1576.65,1272.95 v 68.987 H 25.35 v -68.987 z"
   id="path42" />
    <path
   fill="#558907"
   d="m 1576.65,1342.457 v 68.987 H 25.35 v -68.987 z"
   id="path44" />
    <path
   fill="#1a6f05"
   d="m 1576.65,1411.963 v 68.987 H 25.35 v -68.987 z"
   id="path46" />
    <path
   fill="#558907"
   d="m 1576.65,1481.47 v 68.987 H 25.35 v -68.987 z"
   id="path48" />
    <path
   fill="#1a6f05"
   d="m 1576.65,1550.976 v 68.987 H 25.35 v -68.987 z"
   id="path50" />
    <path
   fill="#558907"
   d="m 1576.65,1620.483 v 68.987 H 25.35 v -68.987 z"
   id="path52" />
    <path
   fill="#1a6f05"
   d="m 1576.65,1689.989 v 68.987 H 25.35 v -68.987 z"
   id="path54" />
    <path
   fill="#558907"
   d="m 1576.65,1759.496 v 68.987 H 25.35 v -68.987 z"
   id="path56" />
    <path
   fill="#1a6f05"
   d="m 1576.65,1829.002 v 68.987 H 25.35 v -68.987 z"
   id="path58" />
    <path
   fill="#558907"
   d="m 1576.65,1898.509 v 68.987 H 25.35 v -68.987 z"
   id="path60" />
    <path
   fill="#1a6f05"
   d="m 1576.65,1968.015 v 68.987 H 25.35 v -68.987 z"
   id="path62" />
    <path
   fill="#558907"
   d="m 1576.65,2037.522 v 68.987 H 25.35 v -68.987 z"
   id="path64" />
    <path
   fill="#1a6f05"
   d="m 1576.65,2107.028 v 68.987 H 25.35 v -68.987 z"
   id="path66" />
    <path
   fill="#558907"
   d="m 1576.65,2176.535 v 68.987 H 25.35 v -68.987 z"
   id="path68" />
    <path
   fill="#1a6f05"
   d="m 1576.65,2246.041 v 68.987 H 25.35 v -68.987 z"
   id="path70" />
    <path
   fill="#558907"
   d="m 1576.65,2315.548 v 68.987 H 25.35 v -68.987 z"
   id="path72" />
    <path
   fill="#1a6f05"
   d="m 1576.65,2385.054 v 68.987 H 25.35 v -68.987 z"
   id="path74" />
    <path
   fill="#558907"
   d="m 1576.65,2454.561 v 81.707 H 25.35 v -81.707 z"
   id="path76" />
    <g
   stroke="#ffffff"
   stroke-miterlimit="10"
   id="g108"
   transform="rotate(90,800,801)">
        <path
   fill="none"
   stroke-width="5.659"
   d="M 26,26 H 1280 V 1570 H 26 Z"
   id="path78" />
        <path
   fill="none"
   stroke-width="8"
   d="M 1280,1570 V 26 Z M 26,1271 H 461 V 328 H 26"
   id="path80" />
        <path
   fill="none"
   stroke-width="8"
   d="m 26,559 h 155 v 480 H 26 M 461,612 c 174,21 232,308 0,379"
   id="path82" />
        <path
   fill="none"
   stroke-width="8.171"
   d="m 1279,563 c -131.72,0 -238.5,106.78 -238.5,238.5 0,131.72 106.78,238.5 238.5,238.5"
   id="path84" />
        <path
   fill="#ffffff"
   stroke-width="2"
   d="m 1280,782 c -9.941,0 -18,8.059 -18,18 0,9.941 8.059,18 18,18"
   id="path86" />
        <path
   fill="none"
   stroke-width="5.659"
   d="m 25.75,1527.25 c 23.631,3.572 36.412,17.559 37,43.25 M 25.667,65.833 C 47.392,64.37 60.587,51.711 63.833,26"
   id="path88" />
        <circle
   fill="#ffffff"
   stroke-width="2"
   cx="290.5"
   cy="798.25"
   r="19"
   id="circle90" />
        <g
   id="g106">
            <path
   fill="none"
   stroke-width="5.659"
   d="m 1282.667,26 h 1254 v 1544 h -1254 z"
   id="path92" />
            <path
   fill="none"
   stroke-width="8"
   d="M 1282.667,1570 V 26 Z m 1254,-299 h -435 V 328 h 435"
   id="path94" />
            <path
   fill="none"
   stroke-width="8"
   d="m 2536.667,559 h -155 v 480 h 155 m -435,-427 c -174,21 -232,308 0,379"
   id="path96" />
            <path
   fill="none"
   stroke-width="8.171"
   d="m 1283.667,563 c 131.72,0 238.5,106.78 238.5,238.5 0,131.72 -106.78,238.5 -238.5,238.5"
   id="path98" />
            <path
   fill="#ffffff"
   stroke-width="2"
   d="m 1282.667,782 c 9.94,0 18,8.059 18,18 0,9.941 -8.06,18 -18,18"
   id="path100" />
        <path
   fill="none"
   stroke-width="5.659"
   d="m 2536.917,1527.25 c -23.631,3.572 -36.412,17.559 -37,43.25 M 2537,65.833 C 2515.275,64.369 2502.08,51.711 2498.833,26"
   id="path102" />
            <circle
   fill="#ffffff"
   stroke-width="2"
   cx="2272.167"
   cy="798.25"
   r="19"
   id="circle104" />
        </g>
    </g>
</svg>
