<svg xmlns="http://www.w3.org/2000/svg" xml:space="preserve">
    <path fill="#278406" d="M0 0h2560v1600H0z"/>
    <path fill="#4D8200" d="M20.833 24.35h2518.334v1551.3H20.833z"/>
    <path fill="#1A6F05" d="M20.833 24.35H89.82v1551.3H20.833z"/>
    <path fill="#06b100" d="M90.34 24.35h68.987v1551.3H90.34z"/>
    <path fill="#1A6F05" d="M159.846 24.35h68.987v1551.3h-68.987z"/>
    <path fill="#06b100" d="M229.353 24.35h68.987v1551.3h-68.987z"/>
    <path fill="#1A6F05" d="M298.859 24.35h68.987v1551.3h-68.987z"/>
    <path fill="#06b100" d="M368.366 24.35h68.987v1551.3h-68.987z"/>
    <path fill="#1A6F05" d="M437.872 24.35h68.987v1551.3h-68.987z"/>
    <path fill="#06b100" d="M507.379 24.35h68.987v1551.3h-68.987z"/>
    <path fill="#1A6F05" d="M576.885 24.35h68.987v1551.3h-68.987z"/>
    <path fill="#06b100" d="M646.392 24.35h68.987v1551.3h-68.987z"/>
    <path fill="#1A6F05" d="M715.898 24.35h68.987v1551.3h-68.987z"/>
    <path fill="#06b100" d="M785.405 24.35h68.987v1551.3h-68.987z"/>
    <path fill="#1A6F05" d="M854.911 24.35h68.987v1551.3h-68.987z"/>
    <path fill="#06b100" d="M924.418 24.35h68.987v1551.3h-68.987z"/>
    <path fill="#1A6F05" d="M993.924 24.35h68.987v1551.3h-68.987z"/>
    <path fill="#06b100" d="M1063.431 24.35h68.987v1551.3h-68.987z"/>
    <path fill="#1A6F05" d="M1132.937 24.35h68.987v1551.3h-68.987z"/>
    <path fill="#06b100" d="M1202.444 24.35h68.987v1551.3h-68.987z"/>
    <path fill="#1A6F05" d="M1271.95 24.35h68.987v1551.3h-68.987z"/>
    <path fill="#06b100" d="M1341.457 24.35h68.987v1551.3h-68.987z"/>
    <path fill="#1A6F05" d="M1410.963 24.35h68.987v1551.3h-68.987z"/>
    <path fill="#06b100" d="M1480.47 24.35h68.987v1551.3h-68.987z"/>
    <path fill="#1A6F05" d="M1549.976 24.35h68.987v1551.3h-68.987z"/>
    <path fill="#06b100" d="M1619.483 24.35h68.987v1551.3h-68.987z"/>
    <path fill="#1A6F05" d="M1688.989 24.35h68.987v1551.3h-68.987z"/>
    <path fill="#06b100" d="M1758.496 24.35h68.987v1551.3h-68.987z"/>
    <path fill="#1A6F05" d="M1828.002 24.35h68.987v1551.3h-68.987z"/>
    <path fill="#06b100" d="M1897.509 24.35h68.987v1551.3h-68.987z"/>
    <path fill="#1A6F05" d="M1967.015 24.35h68.987v1551.3h-68.987z"/>
    <path fill="#06b100" d="M2036.522 24.35h68.987v1551.3h-68.987z"/>
    <path fill="#1A6F05" d="M2106.028 24.35h68.987v1551.3h-68.987z"/>
    <path fill="#06b100" d="M2175.535 24.35h68.987v1551.3h-68.987z"/>
    <path fill="#1A6F05" d="M2245.041 24.35h68.987v1551.3h-68.987z"/>
    <path fill="#06b100" d="M2314.548 24.35h68.987v1551.3h-68.987z"/>
    <path fill="#1A6F05" d="M2384.054 24.35h68.987v1551.3h-68.987z"/>
    <path fill="#06b100" d="M2453.561 24.35h81.707v1551.3h-81.707z"/>
    <g stroke="#FFF" stroke-miterlimit="10">
        <path fill="none" stroke-width="5.659" d="M26 26h1254v1544H26z"/>
        <path fill="none" stroke-width="8" d="M1280 1570V26v1544zM26 1271h435V328H26"/>
        <path fill="none" stroke-width="8" d="M26 559h155v480H26M461 612c174 21 232 308 0 379"/>
        <path fill="none" stroke-width="8.171" d="M1279 563c-131.72 0-238.5 106.78-238.5 238.5S1147.28 1040 1279 1040"/>
        <path fill="#FFF" stroke-width="2" d="M1280 782c-9.941 0-18 8.059-18 18s8.059 18 18 18"/>
        <path fill="none" stroke-width="5.659" d="M25.75 1527.25c23.631 3.572 36.412 17.559 37 43.25M25.667 65.833C47.392 64.37 60.587 51.711 63.833 26"/>
        <circle fill="#FFF" stroke-width="2" cx="290.5" cy="798.25" r="19"/>
        <g>
            <path fill="none" stroke-width="5.659" d="M1282.667 26h1254v1544h-1254z"/>
            <path fill="none" stroke-width="8" d="M1282.667 1570V26v1544zM2536.667 1271h-435V328h435"/>
            <path fill="none" stroke-width="8" d="M2536.667 559h-155v480h155M2101.667 612c-174 21-232 308 0 379"/>
            <path fill="none" stroke-width="8.171" d="M1283.667 563c131.72 0 238.5 106.78 238.5 238.5s-106.78 238.5-238.5 238.5"/>
            <path fill="#FFF" stroke-width="2" d="M1282.667 782c9.94 0 18 8.059 18 18s-8.06 18-18 18"/>
        <path fill="none" stroke-width="5.659" d="M2536.917 1527.25c-23.631 3.572-36.412 17.559-37 43.25M2537 65.833c-21.725-1.464-34.92-14.122-38.167-39.833"/>
            <circle fill="#FFF" stroke-width="2" cx="2272.167" cy="798.25" r="19"/>
        </g>
    </g>
</svg>